<svg width="176" height="156" fill="none" xmlns="http://www.w3.org/2000/svg"><path d="M93.5 23.013c-27.019 0-49.878 17.703-57.647 42.11 11.55-5.844 24.578-9.11 38.397-9.11h30.25c3.025 0 5.5 2.475 5.5 5.5s-2.475 5.5-5.5 5.5H74.25c-5.706 0-11.24.653-16.603 1.856a73.81 73.81 0 0 0-24.544 10.553C13.166 92.725 0 115.447 0 141.263v5.5a8.23 8.23 0 0 0 8.25 8.25 8.23 8.23 0 0 0 8.25-8.25v-5.5c0-16.741 7.116-31.797 18.494-42.35 6.806 25.953 30.422 45.1 58.506 45.1h.344C139.253 143.772 176 99.016 176 43.844c0-14.644-2.578-28.565-7.253-41.112-.894-2.372-4.366-2.27-5.569-.035-6.462 12.1-19.25 20.316-33.928 20.316H93.5Z" fill="#69C1B0"/></svg>