<svg width="176" height="234" fill="none" xmlns="http://www.w3.org/2000/svg"><path d="M132 0c8.112 0 14.667 6.536 14.667 14.625V58.5h-29.334V14.625C117.333 6.535 123.887 0 132 0ZM44 0c8.112 0 14.667 6.536 14.667 14.625V58.5H29.333V14.625C29.333 6.535 35.888 0 44 0Zm117.333 73.125c8.113 0 14.667 6.535 14.667 14.625s-6.554 14.625-14.667 14.625V117c0 35.374-25.208 64.898-58.666 71.662v30.713C102.667 227.464 96.112 234 88 234s-14.667-6.536-14.667-14.625v-30.713C39.875 181.898 14.667 152.374 14.667 117v-14.625C6.554 102.375 0 95.84 0 87.75s6.554-14.625 14.667-14.625h146.666Z" fill="#F5C870"/></svg>