<svg width="176" height="240" fill="none" xmlns="http://www.w3.org/2000/svg"><path d="M86.542 23.087a22.365 22.365 0 1 1 44.73 0 22.365 22.365 0 0 1-44.73 0Zm23.902 85.125-8.899 35.55 23.156 23.157c4.194 4.193 6.57 9.878 6.57 15.795v41.654c0 8.247-6.663 14.91-14.91 14.91s-14.91-6.663-14.91-14.91v-38.532l-34.432-34.432a29.715 29.715 0 0 1-7.874-28.096L68.65 84.17c3.867-15.888 19.895-25.58 35.737-21.619 8.852 2.236 16.587 7.641 21.619 15.236l13.232 19.848h14.397V86.453a11.156 11.156 0 0 1 11.183-11.182A11.155 11.155 0 0 1 176 86.453v141.642a11.156 11.156 0 0 1-11.182 11.183 11.156 11.156 0 0 1-11.183-11.183v-100.64h-18.357a22.322 22.322 0 0 1-18.591-9.971l-6.197-9.319-.046.047ZM34.87 220.594l16.867-64.252a44.209 44.209 0 0 0 4.706 5.545l19.522 19.522-12.3 46.733c-2.097 7.967-10.25 12.72-18.218 10.623-7.968-2.096-12.72-10.25-10.623-18.218l.046.047ZM60.73 59.383l-16.401 65.509c-1.398 5.638-6.943 9.272-12.674 8.34l-22.318-3.727c-6.523-1.072-10.67-7.595-8.945-13.978l11.555-42.586c4.426-16.214 19.15-27.49 35.97-27.49h1.956c7.269 0 12.627 6.85 10.856 13.885v.047Z" fill="#709DF5"/></svg>